<svg height="480pt" viewBox="-40 0 480 480.03229" width="480pt" xmlns="http://www.w3.org/2000/svg"><path d="m184.015625 88.03125h8c4.417969 0 8-3.582031 8-8s-3.582031-8-8-8h-8c-4.417969 0-8 3.582031-8 8s3.582031 8 8 8zm0 0"/><path d="m232.015625 112.03125h8c4.417969 0 8-3.582031 8-8s-3.582031-8-8-8h-8c-4.417969 0-8 3.582031-8 8s3.582031 8 8 8zm0 0"/><path d="m96.015625 120.03125h8c4.417969 0 8-3.582031 8-8s-3.582031-8-8-8h-8c-4.417969 0-8 3.582031-8 8s3.582031 8 8 8zm0 0"/><path d="m160.015625 128.03125h8c4.417969 0 8-3.582031 8-8s-3.582031-8-8-8h-8c-4.417969 0-8 3.582031-8 8s3.582031 8 8 8zm0 0"/><path d="m288.015625 128.03125h8c4.417969 0 8-3.582031 8-8s-3.582031-8-8-8h-8c-4.417969 0-8 3.582031-8 8s3.582031 8 8 8zm0 0"/><path d="m48.015625 472.441406c.21875 4.257813 3.738281 7.597656 8 7.589844h288c4.265625.007812 7.78125-3.332031 8-7.589844l15.640625-305.210937c17.222656-3.3125 30.265625-17.488281 32.132812-34.929688 1.871094-17.441406-7.867187-34.058593-23.996093-40.949219-2.4375-24.566406-23.089844-43.292968-47.777344-43.320312-1.945313.003906-3.890625.140625-5.816406.417969-9.453125-14.566407-27.960938-20.308594-44-13.648438-5.300781-18.636719-21.304688-32.242187-40.546875-34.480469-19.246094-2.238281-37.945313 7.335938-47.378906 24.257813-8.777344-1.5-17.796876.09375-25.527344 4.503906-6.730469-14.714843-22.449219-23.128906-38.421875-20.574219-15.976563 2.550782-28.285157 15.449219-30.09375 31.523438h-.214844c-22.078125.027344-39.972656 17.921875-40 40v.328125c-3.679687-.222656-6.953125-.328125-8-.328125-25.597656 0-48 20.5625-48 44 1.035156 19.171875 13.910156 35.660156 32.257813 41.3125zm.425781-304.410156h47.574219v296h-32.398437zm63.574219 0h48v68.175781c-19.992187 13.34375-32 35.789063-32 59.824219s12.007813 46.484375 32 59.824219v108.175781h-48zm112 0v60.199219c-15.507813-5.597657-32.488281-5.597657-48 0v-60.199219zm-24 184c-30.925781 0-56-25.070312-56-56 0-30.925781 25.074219-56 56-56 30.929687 0 56 25.074219 56 56-.039063 30.914062-25.089844 55.960938-56 56zm-24 11.800781c15.511719 5.601563 32.492187 5.601563 48 0v100.199219h-48zm64-8c19.992187-13.339843 32-35.789062 32-59.824219 0-24.035156-12.007813-46.480468-32-59.824218v-68.152344h48v296h-48zm96.402344 108.199219h-32.402344v-296h47.578125zm-320.402344-340c0-15.765625 17.199219-28 32-28 5.167969.066406 10.328125.457031 15.449219 1.167969 2.824218.785156 5.847656-.035157 7.886718-2.140625 2.039063-2.105469 2.761719-5.15625 1.886719-7.953125-.765625-2.28125-1.179687-4.667969-1.222656-7.074219-.140625-7.535156 3.335937-14.6875 9.347656-19.234375s13.839844-5.941406 21.054688-3.757813c2.664062.738282 5.519531.046876 7.554687-1.824218 2.03125-1.875 2.953125-4.667969 2.433594-7.382813-.246094-1.25-.378906-2.523437-.390625-3.800781.519531-10.53125 9.128906-18.847656 19.671875-19.011719 10.542969-.160156 19.398438 7.894531 20.242188 18.40625.097656 3.292969 2.207031 6.191407 5.316406 7.296875 3.105468 1.105469 6.574218.1875 8.730468-2.304687 6.226563-7.765625 16.789063-10.558594 26.039063-6.890625 4.101563 1.460937 8.613281-.625 10.160156-4.695313 5.375-14.40625 20.257813-22.9375 35.40625-20.292969 15.148438 2.648438 26.261719 15.714844 26.433594 31.09375 0 .207032-.039063.398438-.046875.550782-.148438 3.320312 1.765625 6.382812 4.816406 7.703125 3.050782 1.320312 6.59375.617187 8.910156-1.765625 4.691407-4.847656 11.515626-6.992188 18.136719-5.703125 6.621094 1.292969 12.140625 5.847656 14.664063 12.101562 1.519531 3.714844 5.558594 5.726563 9.441406 4.703125 2.628906-.742187 5.34375-1.144531 8.078125-1.191406 17.449219 0 31.683594 13.972656 32 31.417969-.046875.328125-.136719 1.175781-.144531 1.503906-.078125 3.71875 2.417968 7 6.023437 7.917969 11.71875 2.957031 19.398438 14.1875 17.902344 26.179687-1.496094 11.992188-11.695313 20.992188-23.78125 20.980469h-312c-14.800781 0-32-12.230469-32-28zm0 0"/></svg>