<svg id="Layer_1" viewBox="0 0 512 512" xmlns="http://www.w3.org/2000/svg" data-name="Layer 1"><path d="m320.174 28.058a8.291 8.291 0 0 0 -7.563-4.906h-113.222a8.293 8.293 0 0 0 -7.564 4.907l-66.425 148.875a8.283 8.283 0 0 0 7.564 11.655h77.336v67.765a20.094 20.094 0 1 0 12 0v-67.765h27.7v288.259h-48.441a6 6 0 0 0 0 12h108.882a6 6 0 0 0 0-12h-48.441v-288.259h117.04a8.284 8.284 0 0 0 7.564-11.657zm-103.874 255.567a8.094 8.094 0 1 1 8.094-8.093 8.1 8.1 0 0 1 -8.094 8.093zm-77.61-107.036 63.11-141.437h108.4l63.11 141.437z"/></svg>