<?xml version="1.0" encoding="iso-8859-1"?>
<!-- Generator: Adobe Illustrator 16.0.0, SVG Export Plug-In . SVG Version: 6.00 Build 0)  -->
<!DOCTYPE svg PUBLIC "-//W3C//DTD SVG 1.1//EN" "http://www.w3.org/Graphics/SVG/1.1/DTD/svg11.dtd">
<svg version="1.1" id="Capa_1" xmlns="http://www.w3.org/2000/svg" xmlns:xlink="http://www.w3.org/1999/xlink" x="0px" y="0px"
	 width="311.483px" height="311.484px" viewBox="0 0 311.483 311.484" style="enable-background:new 0 0 311.483 311.484;"
	 xml:space="preserve">
<g>
	<g>
		<path d="M48.642,260.894H88.75c11.09,0,20.122-9.029,20.122-20.119v-88.088c0-0.756,0.274-1.437,0.812-1.973
			c0.521-0.505,1.208-0.79,1.983-0.79l11.535,0.094c6.02,0.078,9.605-2.204,11.565-4.134c2.369-2.361,3.667-5.505,3.667-8.871
			c0-3.334-1.216-6.649-3.628-9.859l-51.8-69.235c-3.435-4.628-8.46-7.3-13.784-7.3c-5.316,0-10.349,2.638-13.802,7.254
			L3.636,126.84C1.226,130.047,0,133.381,0,136.73c0,6.494,5.2,13.083,15.137,13.083h10.506c1.579,0,2.869,1.295,2.869,2.869v88.083
			C28.521,251.875,37.549,260.894,48.642,260.894z M23.275,132.583c-1.313,0-0.254-2.828,2.361-6.319l38.829-51.722
			c2.623-3.491,6.857-3.483,9.473,0.007l38.788,51.864c2.615,3.491,3.469,6.312,1.92,6.305l-2.813-0.023
			c-5.396-0.066-10.45,1.991-14.274,5.774c-3.832,3.783-5.941,8.84-5.941,14.228v88.083c0,1.59-1.287,2.869-2.867,2.869H48.642
			c-1.582,0-2.876-1.279-2.876-2.869v-88.093c0-11.075-9.029-20.104-20.114-20.104C25.651,132.583,24.585,132.583,23.275,132.583z"
			/>
		<path d="M262.841,50.589h-40.105c-11.096,0-20.114,9.029-20.114,20.122v88.085c0,0.756-0.284,1.437-0.822,1.975
			c-0.523,0.503-1.209,0.787-1.985,0.787l-11.532-0.091c-6.018-0.081-9.607,2.204-11.567,4.128c-2.367,2.366-3.662,5.51-3.662,8.871
			c0,3.337,1.214,6.652,3.626,9.877l51.801,69.223c3.433,4.626,8.46,7.297,13.781,7.297c5.316,0,10.349-2.635,13.802-7.251
			l51.78-68.969c2.417-3.21,3.642-6.54,3.642-9.892c0-6.49-5.2-13.081-15.138-13.081h-10.507c-1.579,0-2.869-1.295-2.869-2.869
			V70.718C282.965,59.618,273.932,50.589,262.841,50.589z M288.211,178.9c1.31,0,0.248,2.828-2.372,6.322l-38.82,51.719
			c-2.626,3.494-6.866,3.483-9.471-0.005l-38.791-51.856c-2.615-3.494-3.479-6.312-1.92-6.307l2.813,0.025
			c5.394,0.061,10.45-1.99,14.274-5.769c3.834-3.783,5.941-8.841,5.941-14.229V70.718c0-1.589,1.284-2.869,2.869-2.869h40.105
			c1.59,0,2.874,1.28,2.874,2.869v88.083c0,11.08,9.034,20.108,20.114,20.108C285.829,178.9,286.896,178.9,288.211,178.9z"/>
	</g>
</g>
<g>
</g>
<g>
</g>
<g>
</g>
<g>
</g>
<g>
</g>
<g>
</g>
<g>
</g>
<g>
</g>
<g>
</g>
<g>
</g>
<g>
</g>
<g>
</g>
<g>
</g>
<g>
</g>
<g>
</g>
</svg>
