<?xml version="1.0" encoding="iso-8859-1"?>
<!-- Generator: Adobe Illustrator 19.0.0, SVG Export Plug-In . SVG Version: 6.00 Build 0)  -->
<svg version="1.1" id="Capa_1" xmlns="http://www.w3.org/2000/svg" xmlns:xlink="http://www.w3.org/1999/xlink" x="0px" y="0px"
	 viewBox="0 0 388.888 388.888" style="enable-background:new 0 0 388.888 388.888;" xml:space="preserve">
<g>
	<g>
		<path d="M335.235,42.839l-46.35-40.96c-1.207-1.067-2.761-1.657-4.371-1.657H57.797c-3.644,0-6.6,2.956-6.6,6.6v375.467
			c0,3.644,2.956,6.6,6.6,6.6h273.067c3.644,0,6.601-2.956,6.601-6.6V47.782C337.465,45.892,336.651,44.089,335.235,42.839z
			 M324.266,375.689H64.399V13.421h217.62l42.247,37.333V375.689z"/>
	</g>
</g>
<g>
	<g>
		<path d="M194.331,129.702c-39.523,0-71.68,32.157-71.68,71.68s32.157,71.68,71.68,71.68c39.525,0,71.68-32.157,71.68-71.68
			S233.854,129.702,194.331,129.702z M194.331,259.408c-31.997,0-58.027-26.03-58.027-58.027s26.03-58.027,58.027-58.027
			c31.997,0,58.027,26.03,58.027,58.027S226.327,259.408,194.331,259.408z"/>
	</g>
</g>
<g>
	<g>
		<path d="M228.464,195.466l-51.2-29.559c-2.113-1.22-4.714-1.22-6.827,0s-3.413,3.473-3.413,5.914v59.121
			c0,2.44,1.3,4.693,3.413,5.914c1.056,0.609,2.234,0.913,3.413,0.913c1.181,0,2.357-0.304,3.413-0.915l51.2-29.559
			c2.113-1.22,3.413-3.473,3.413-5.914C231.877,198.94,230.577,196.687,228.464,195.466z M180.677,219.117v-35.473l30.72,17.736
			L180.677,219.117z"/>
	</g>
</g>
<g>
	<g>
		<path d="M335.306,42.599L287.52,1.639c-2.026-1.734-4.869-2.121-7.296-1.021c-2.42,1.118-3.973,3.538-3.973,6.204v40.96
			c0,3.77,3.057,6.827,6.827,6.827h47.787c2.857,0,5.41-1.78,6.402-4.456C338.257,47.471,337.476,44.459,335.306,42.599z
			 M289.904,40.955v-19.29l22.508,19.29H289.904z"/>
	</g>
</g>
<g>
</g>
<g>
</g>
<g>
</g>
<g>
</g>
<g>
</g>
<g>
</g>
<g>
</g>
<g>
</g>
<g>
</g>
<g>
</g>
<g>
</g>
<g>
</g>
<g>
</g>
<g>
</g>
<g>
</g>
</svg>
