<svg id="icons" enable-background="new 0 0 64 64" height="512" viewBox="0 0 64 64" width="512" xmlns="http://www.w3.org/2000/svg"><path d="m44.999 0h-25.998c-2.757 0-5 2.243-5 5v54c0 2.757 2.243 5 5 5h25.998c2.757 0 5-2.243 5-5v-54c0-2.757-2.243-5-5-5zm3 59c0 1.654-1.346 3-3 3h-25.998c-1.654 0-3-1.346-3-3v-54c0-1.654 1.346-3 3-3h25.998c1.654 0 3 1.346 3 3z"/><path d="m38 16h-12c-.553 0-1 .447-1 1v30c0 .553.447 1 1 1h12c.553 0 1-.447 1-1v-30c0-.553-.447-1-1-1zm-11 17.016h10v10.001h-10zm10-15.016v13.016h-10v-13.016zm-10 28v-.983h10v.983z"/><path d="m32.016 35.517c-1.683 0-3 1.098-3 2.5s1.317 2.5 3 2.5 3-1.098 3-2.5-1.318-2.5-3-2.5zm0 3c-.62 0-1-.323-1-.5s.38-.5 1-.5 1 .323 1 .5-.38.5-1 .5z"/><path d="m32.016 28.018c.553 0 1-.447 1-1v-5c0-.553-.447-1-1-1s-1 .447-1 1v5c0 .552.447 1 1 1z"/><path d="m32 11.018c1.379 0 2.5-1.121 2.5-2.5s-1.121-2.5-2.5-2.5-2.5 1.121-2.5 2.5 1.121 2.5 2.5 2.5zm0-3c.275 0 .5.225.5.5s-.225.5-.5.5-.5-.225-.5-.5.225-.5.5-.5z"/><path d="m32 53.017c-1.379 0-2.5 1.121-2.5 2.5s1.121 2.5 2.5 2.5 2.5-1.121 2.5-2.5-1.121-2.5-2.5-2.5zm0 3c-.275 0-.5-.225-.5-.5s.225-.5.5-.5.5.225.5.5-.225.5-.5.5z"/></svg>