<?xml version="1.0" encoding="iso-8859-1"?>
<!-- Generator: Adobe Illustrator 19.0.0, SVG Export Plug-In . SVG Version: 6.00 Build 0)  -->
<svg version="1.1" id="Capa_1" xmlns="http://www.w3.org/2000/svg" xmlns:xlink="http://www.w3.org/1999/xlink" x="0px" y="0px"
	 viewBox="0 0 480 480" style="enable-background:new 0 0 480 480;" xml:space="preserve">
<g>
	<g>
		<g>
			<path d="M239.993,264c70.576,0,128-39.48,128-88s-57.424-88-128-88s-128,39.48-128,88S169.417,264,239.993,264z M239.993,104
				c61.76,0,112,32.296,112,72s-50.24,72-112,72s-112-32.296-112-72S178.233,104,239.993,104z"/>
			<path d="M446.569,411.616l-43.2-359.904C401.01,22.592,376.752,0.125,347.537,0H132.449
				C103.35,0.084,79.132,22.375,76.641,51.368l-43.2,360.256c-6.919,30.058,11.839,60.034,41.897,66.953
				c4.15,0.955,8.396,1.433,12.655,1.423h304c30.844,0.085,55.916-24.851,56.001-55.695
				C448.006,420.035,447.528,415.777,446.569,411.616z M92.561,52.928C94.256,32.131,111.583,16.089,132.449,16h215.088
				c20.984,0.129,38.353,16.346,39.92,37.272l39.2,326.84C416.806,372.27,404.586,368,391.993,368h-304
				c-12.597-0.001-24.822,4.269-34.68,12.112L92.561,52.928z M399.993,463.2V432c0-4.418-3.582-8-8-8s-8,3.582-8,8v32h-16v-32
				c0-4.418-3.582-8-8-8s-8,3.582-8,8v32h-16v-32c0-4.418-3.582-8-8-8s-8,3.582-8,8v32h-16v-32c0-4.418-3.582-8-8-8s-8,3.582-8,8v32
				h-200c-21.986,0-39.85-17.743-40-39.728l1.136-9.432c4.245-18.043,20.329-30.806,38.864-30.84h304
				c18.526,0.045,34.598,12.806,38.84,30.84l1.16,9.432C431.844,443.172,418.507,459.396,399.993,463.2z"/>
			<path d="M103.993,400c-13.255,0-24,10.745-24,24s10.745,24,24,24s24-10.745,24-24S117.248,400,103.993,400z M103.993,432
				c-4.418,0-8-3.582-8-8s3.582-8,8-8s8,3.582,8,8S108.412,432,103.993,432z"/>
		</g>
	</g>
</g>
<g>
</g>
<g>
</g>
<g>
</g>
<g>
</g>
<g>
</g>
<g>
</g>
<g>
</g>
<g>
</g>
<g>
</g>
<g>
</g>
<g>
</g>
<g>
</g>
<g>
</g>
<g>
</g>
<g>
</g>
</svg>
