<?xml version="1.0" encoding="iso-8859-1"?>
<!-- Generator: Adobe Illustrator 19.0.0, SVG Export Plug-In . SVG Version: 6.00 Build 0)  -->
<svg version="1.1" id="Capa_1" xmlns="http://www.w3.org/2000/svg" xmlns:xlink="http://www.w3.org/1999/xlink" x="0px" y="0px"
	 viewBox="0 0 508 508" style="enable-background:new 0 0 508 508;" xml:space="preserve">
<g>
	<g>
		<path d="M467,163.9H130.3c-0.6-3.2-1.7-6.1-3.1-9L465.9,41.8c4.5,4.5,10.7,7.4,17.5,7.4c13.6,0,24.6-11,24.6-24.6
			C508,11,497,0,483.4,0c-13.6,0-24.6,11-24.6,24.6c0,0.8,0.2,1.5,0.2,2.2L116.7,141.1c-7.2-6.2-16.4-10-26.6-10
			c-19.8,0-36.3,14.1-40.1,32.8h-9c-22.6,0-41,18.4-41,41V467c0,22.6,18.4,41,41,41h426c22.6,0,41-18.4,41-41V204.8
			C508,182.2,489.6,163.9,467,163.9z M483.4,16.4c4.5,0,8.2,3.7,8.2,8.2s-3.7,8.2-8.2,8.2s-8.2-3.7-8.2-8.2S478.9,16.4,483.4,16.4z
			 M90.1,147.5c10.7,0,19.7,6.9,23.1,16.4H67.1C70.5,154.4,79.5,147.5,90.1,147.5z M491.6,467c0,13.6-11,24.6-24.6,24.6H41
			c-13.6,0-24.6-11-24.6-24.6V204.8c0-13.6,11-24.6,24.6-24.6h426c13.6,0,24.6,11,24.6,24.6V467z"/>
	</g>
</g>
<g>
	<g>
		<path d="M49.2,196.7v81.9h409.7v-81.9H49.2z M442.4,262.2h-32.8v-32.8h-16.4v32.8h-57.4v-32.8h-16.4v32.8H262v-32.8h-16.4v32.8
			h-57.4v-32.8h-16.4v32.8h-57.4v-32.8H98v32.8H65.5V213h376.9V262.2z"/>
	</g>
</g>
<g>
	<g>
		<path d="M98.3,376.9c-27.1,0-49.2,22.1-49.2,49.2c0,27.1,22.1,49.2,49.2,49.2c27.1,0,49.2-22.1,49.2-49.2
			C147.5,399,125.4,376.9,98.3,376.9z M98.3,458.8c-18.1,0-32.8-14.7-32.8-32.8c0-18.1,14.7-32.8,32.8-32.8
			c18.1,0,32.8,14.7,32.8,32.8S116.4,458.8,98.3,458.8z"/>
	</g>
</g>
<g>
	<g>
		<path d="M98.3,294.9c-18.1,0-32.8,14.7-32.8,32.8s14.7,32.8,32.8,32.8c18.1,0,32.8-14.7,32.8-32.8
			C131.1,309.6,116.4,294.9,98.3,294.9z M98.3,344.1c-9,0-16.4-7.3-16.4-16.4c0-9,7.3-16.4,16.4-16.4c9,0,16.4,7.3,16.4,16.4
			C114.7,336.7,107.4,344.1,98.3,344.1z"/>
	</g>
</g>
<g>
	<g>
		<path d="M368.7,295c-49.7,0-90.1,40.4-90.1,90.1s40.4,90.1,90.1,90.1s90.1-40.4,90.1-90.1C458.8,335.4,418.4,295,368.7,295z
			 M368.7,311.4c21.8,0,41.3,9.5,54.8,24.6H313.9C327.4,320.9,346.9,311.4,368.7,311.4z M302.8,352.3h131.9
			c3.8,7.6,6.3,15.8,7.3,24.6H295.5C296.5,368.1,299,359.9,302.8,352.3z M368.7,458.8c-21.8,0-41.3-9.5-54.8-24.6h109.6
			C410,449.3,390.5,458.8,368.7,458.8z M434.7,417.9h-132c-3.7-7.6-6.3-15.9-7.2-24.6H442C441,402.1,438.5,410.3,434.7,417.9z"/>
	</g>
</g>
<g>
</g>
<g>
</g>
<g>
</g>
<g>
</g>
<g>
</g>
<g>
</g>
<g>
</g>
<g>
</g>
<g>
</g>
<g>
</g>
<g>
</g>
<g>
</g>
<g>
</g>
<g>
</g>
<g>
</g>
</svg>
